<svg id="Capa_1" enable-background="new 0 0 512 512" height="512" viewBox="0 0 512 512" width="512" xmlns="http://www.w3.org/2000/svg"><g><path d="m384.122 325.965c0-25.223-20.52-45.743-45.742-45.743h-15.524c-4.612-16.365-19.345-27.547-36.449-27.547-.209 0-.42.002-.631.005-12.155.196-22.967 6.319-29.775 15.614-6.809-9.294-17.621-15.418-29.776-15.614-17.368-.326-32.41 10.977-37.08 27.542h-15.525c-25.223 0-45.743 20.521-45.743 45.743 0 11.118 3.949 21.601 11.053 29.823-11.995 11.682-18.954 27.871-18.954 44.792 0 12.077 3.455 23.799 9.99 33.897 2.251 3.478 6.895 4.47 10.371 2.222 3.478-2.251 4.472-6.895 2.222-10.372-4.96-7.665-7.583-16.568-7.583-25.747 0-14.333 6.585-27.97 17.71-36.951h27.334c14.283 0 25.903-11.62 25.903-25.902v-17.117c0-4.143-3.358-7.5-7.5-7.5s-7.5 3.357-7.5 7.5v17.117c0 6.012-4.891 10.902-10.903 10.902h-27.142c-6.379-5.824-10.001-13.951-10.001-22.664 0-16.952 13.791-30.743 30.743-30.743h17.075c6.025 0 11.229-4.131 12.654-10.044 2.486-10.31 11.985-17.681 22.633-17.5 12.416.2 22.517 10.749 22.517 23.517v177.167c0 7.691-3.174 15.217-8.709 20.646-5.394 5.292-12.405 8.151-19.777 7.986-15.104-.288-27.391-12.819-27.391-27.933 0-2.046.225-4.057.656-6.02h2.678c10.833 0 19.647-8.813 19.647-19.647v-22.64c0-4.021 3.271-7.292 7.292-7.292h2.365c4.142 0 7.5-3.357 7.5-7.5s-3.358-7.5-7.5-7.5h-2.365c-12.292 0-22.292 10-22.292 22.292v22.64c0 2.563-2.084 4.649-4.647 4.649h-13.516c-5.631 0-11.139-.973-16.37-2.895-3.888-1.427-8.198.566-9.626 4.454s.565 8.197 4.454 9.626c5.527 2.03 11.282 3.258 17.163 3.665-.292 2.03-.438 4.089-.438 6.168 0 23.228 18.888 42.486 42.104 42.931.274.005.546.008.819.008 11.119-.001 21.656-4.344 29.75-12.284 2.143-2.102 4.049-4.415 5.705-6.885 1.656 2.47 3.561 4.783 5.704 6.885 8.095 7.94 18.63 12.284 29.749 12.284.273 0 .547-.003.82-.008 23.217-.444 42.104-19.703 42.104-42.931 0-2.08-.146-4.139-.438-6.169 32.408-2.254 58.084-29.341 58.084-62.313 0-16.92-6.959-33.109-18.954-44.792 7.103-8.221 11.052-18.704 11.052-29.822zm-7.099 74.615c0 26.172-21.293 47.463-47.461 47.463h-13.519c-2.563 0-4.647-2.086-4.647-4.649v-22.64c0-12.292-10-22.292-22.292-22.292h-2.365c-4.143 0-7.5 3.357-7.5 7.5s3.357 7.5 7.5 7.5h2.365c4.021 0 7.292 3.271 7.292 7.292v22.64c0 10.834 8.813 19.647 19.647 19.647h2.678c.431 1.963.656 3.974.656 6.02 0 15.113-12.288 27.645-27.392 27.933-7.394.161-14.385-2.695-19.777-7.986-5.534-5.43-8.709-12.955-8.709-20.646v-177.168c0-12.768 10.102-23.316 22.517-23.517 10.626-.141 20.147 7.189 22.633 17.502 1.428 5.913 6.631 10.042 12.654 10.042h17.076c16.951 0 30.742 13.791 30.742 30.743 0 8.714-3.622 16.841-10 22.664h-27.143c-6.012 0-10.902-4.891-10.902-10.902v-17.117c0-4.143-3.357-7.5-7.5-7.5s-7.5 3.357-7.5 7.5v17.117c0 14.282 11.62 25.902 25.902 25.902h27.334c11.126 8.983 17.711 22.619 17.711 36.952z"/><path d="m253.304 47.848c-29.355 1.355-53.232 25.424-54.359 54.792-.739 19.134 8.077 37.267 23.582 48.502 1.862 1.351 2.973 3.432 2.973 5.568v2.849c-4.506 1.357-7.8 5.541-7.8 10.483v26.886c0 6.038 4.912 10.95 10.95 10.95h3.085v9.265c0 13.38 10.885 24.265 24.265 24.265s24.265-10.885 24.265-24.265v-9.265h3.085c6.038 0 10.95-4.912 10.95-10.95v-26.886c0-4.943-3.293-9.126-7.8-10.483v-2.849c0-2.156.991-4.152 2.646-5.335 14.999-10.701 23.954-28.079 23.954-46.485 0-5.76-.859-11.461-2.555-16.944-1.223-3.957-5.424-6.176-9.38-4.95-3.957 1.223-6.174 5.423-4.95 9.38 1.251 4.047 1.885 8.258 1.885 12.515 0 13.569-6.604 26.383-17.672 34.279-5.59 3.996-8.928 10.554-8.928 17.541v2.382h-31v-2.382c0-6.927-3.427-13.548-9.169-17.713-11.439-8.289-17.942-21.664-17.396-35.78.83-21.646 18.427-39.386 40.06-40.385 8.57-.393 16.891 1.753 24.091 6.206 3.52 2.179 8.145 1.092 10.323-2.433 2.18-3.522 1.09-8.145-2.433-10.323-9.781-6.052-21.085-8.965-32.672-8.435zm11.96 169.295c0 5.108-4.156 9.265-9.265 9.265s-9.265-4.156-9.265-9.265v-9.265h18.529v9.265zm-32.564-43.051h46.6v18.786h-46.6z"/><path d="m256 30.838c4.143 0 7.5-3.357 7.5-7.5v-15.838c0-4.143-3.357-7.5-7.5-7.5-4.142 0-7.5 3.357-7.5 7.5v15.838c0 4.142 3.358 7.5 7.5 7.5z"/><path d="m206.848 44.979c2.93 2.928 7.678 2.929 10.607-.001 2.929-2.929 2.928-7.678 0-10.606l-11.302-11.302c-2.93-2.928-7.678-2.929-10.607.001-2.929 2.929-2.928 7.678 0 10.606z"/><path d="m305.151 44.979 11.302-11.301c2.93-2.929 2.93-7.678.001-10.606-2.93-2.929-7.679-2.93-10.606-.001l-11.302 11.301c-2.93 2.929-2.93 7.678-.001 10.606 2.928 2.928 7.676 2.93 10.606.001z"/><path d="m346.09 134.49c4.807 0 8.279-4.442 7.35-8.971-.567-2.962-2.974-5.325-5.88-5.88-2.439-.5-5.029.311-6.77 2.05-2.954 2.871-2.888 7.801 0 10.601 1.39 1.399 3.319 2.2 5.3 2.2z"/><path d="m366.859 149.77c3.284 2.569 7.993 1.997 10.54-1.239 2.57-3.25 2.006-7.961-1.234-10.53-3.25-2.57-7.965-2.021-10.535 1.229s-2.021 7.97 1.229 10.54z"/><path d="m388.78 159.17c-3.07 2.78-3.29 7.52-.511 10.59 2.799 3.081 7.548 3.287 10.601.51 3.06-2.779 3.29-7.529.51-10.59-2.79-3.071-7.531-3.3-10.6-.51z"/><path d="m419.87 218.83c1.597 3.718 5.931 5.591 9.859 3.93 3.801-1.64 5.561-6.05 3.92-9.86-1.64-3.8-6.05-5.56-9.85-3.92-3.809 1.629-5.559 6.05-3.929 9.85z"/><path d="m429.17 246.59c1.003 4.084 5.125 6.487 9.06 5.5 4.021-.98 6.49-5.04 5.5-9.06 0-.011 0-.011 0-.011-.979-4.02-5.04-6.479-9.06-5.5-4.031.981-6.49 5.041-5.5 9.071z"/><path d="m418.72 184.87c-2.24-3.49-6.89-4.49-10.37-2.25-3.479 2.25-4.49 6.89-2.24 10.37 2.234 3.481 6.873 4.49 10.37 2.239 3.48-2.239 4.48-6.879 2.24-10.359z"/><path d="m439.74 267.66c-3.355.64-6.03 3.669-6.03 7.35 0 4.132 3.377 7.5 7.5 7.5 1.97 0 3.91-.8 5.3-2.2 2.943-2.861 2.894-7.787 0-10.6-1.741-1.75-4.33-2.55-6.77-2.05z"/><path d="m70.79 282.51c4.199 0 7.5-3.43 7.5-7.5 0-3.682-2.677-6.709-6.03-7.35-.97-.2-1.97-.2-2.94 0-3.367.643-6.03 3.678-6.03 7.35 0 4.214 3.449 7.5 7.5 7.5z"/><path d="m82.26 222.79c3.902 1.65 8.241-.185 9.85-3.931 1.64-3.8-.12-8.21-3.92-9.85-3.81-1.64-8.22.12-9.86 3.93-1.63 3.801.12 8.21 3.93 9.851z"/><path d="m123.2 159.189c-3.07-2.79-7.81-2.56-10.6.511-2.78 3.06-2.55 7.81.52 10.59 3.015 2.76 7.775 2.59 10.59-.51 2.78-3.07 2.56-7.81-.51-10.591z"/><path d="m145.119 149.78c3.24-2.57 3.79-7.29 1.23-10.53-2.58-3.25-7.29-3.8-10.54-1.23s-3.8 7.28-1.23 10.53c2.578 3.255 7.289 3.798 10.54 1.23z"/><path d="m103.63 182.649c-3.48-2.239-8.12-1.239-10.36 2.24-.01 0-.01 0-.01 0-2.24 3.49-1.23 8.13 2.25 10.37 3.402 2.203 8.089 1.287 10.36-2.24 2.249-3.489 1.24-8.129-2.24-10.37z"/><path d="m75.55 252.35c3.37 0 6.439-2.291 7.28-5.72.989-4.031-1.49-8.08-5.51-9.061-4.03-.979-8.09 1.48-9.07 5.5-1.137 4.677 2.367 9.281 7.3 9.281z"/><path d="m164.44 134.34c4.099.834 8.059-1.904 8.82-5.88.845-4.137-1.948-8.068-5.88-8.82-4.113-.849-8.065 1.935-8.82 5.88-.843 4.129 1.944 8.068 5.88 8.82z"/><path d="m500.463 311.244-30.759-16.285c-4.205-2.229-9.244-2.262-13.479-.093-4.235 2.168-7.153 6.277-7.806 10.992l-4.101 29.679-11.406-6.04c-3.57-1.89-7.777-1.79-11.251.267s-5.587 5.694-5.648 9.73l-1.45 93.467c-.073 4.741 3.084 8.876 7.678 10.055.854.22 1.713.325 2.561.325 3.713 0 7.203-2.029 9.01-5.44l26.086-49.27 16.847 8.919c3.223 1.707 6.968 1.798 10.271.252 3.304-1.547 5.63-4.48 6.382-8.049l13.62-64.518c1.172-5.571-1.522-11.325-6.555-13.991zm-20.788 70.887-15.176-8.035c-5.98-3.164-13.416-.875-16.579 5.101l-18.051 34.092 1.054-67.871 9.829 5.204c3.535 1.873 7.771 1.9 11.33.078 3.561-1.822 6.013-5.275 6.561-9.238l4.556-32.974 28.803 15.249z"/><path d="m90.337 329.764c-3.476-2.055-7.681-2.155-11.25-.266l-11.406 6.04-4.101-29.679c-.651-4.714-3.568-8.822-7.804-10.992-4.235-2.167-9.275-2.135-13.48.093l-30.76 16.285c-5.033 2.667-7.727 8.421-6.551 13.993l13.619 64.518c.754 3.568 3.08 6.502 6.383 8.048 3.304 1.547 7.047 1.454 10.271-.252l16.846-8.919 26.086 49.27c2.207 4.169 6.948 6.299 11.571 5.115 4.593-1.18 7.75-5.314 7.676-10.056l-1.45-93.466c-.062-4.038-2.175-7.677-5.65-9.732zm-26.257 49.432c-2.199-4.152-6.459-6.523-10.86-6.523-1.934 0-3.895.458-5.719 1.424l-15.175 8.034-12.327-58.395 28.802-15.249 4.557 32.975c1.165 8.428 10.372 13.141 17.89 9.159l9.83-5.204 1.053 67.871z"/></g></svg>