<?xml version="1.0" encoding="utf-8"?>
<!-- Generator: Adobe Illustrator 23.0.1, SVG Export Plug-In . SVG Version: 6.00 Build 0)  -->
<svg version="1.1" id="Layer_1" xmlns="http://www.w3.org/2000/svg" xmlns:xlink="http://www.w3.org/1999/xlink" x="0px" y="0px"
	 viewBox="0 0 16 9.91" style="enable-background:new 0 0 16 9.91;" xml:space="preserve">
<style type="text/css">
	.st0{fill:#DD0E0E;}
</style>
<g>
	<path class="st0" d="M0,9.68V9.25C0.6,9.02,0.82,8.73,1.01,8l1.78-6.88L2.53,0.33l1.44-0.09L6.3,9.09l0.59,0.16v0.43H4.34V9.25
		l0.59-0.16L4.31,6.72H1.77L1.45,7.98C1.4,8.21,1.38,8.36,1.38,8.57c0,0.47,0.38,0.55,0.74,0.68v0.43H0z M4.18,6.16L3.06,1.81H3.04
		L1.93,6.16H4.18z"/>
	<path class="st0" d="M10.56,0.88L9.97,0.77V0.34h3.58c0.97,0,2.1,0.53,2.1,2.05c0,1.47-1.06,2.03-2.04,2.19v0.03
		C14.83,4.93,16,5.68,16,7.2c0,1.52-1.01,2.48-2.59,2.48H9.97V9.25l0.59-0.11V0.88z M11.86,4.34h0.68c1.48,0,1.81-0.95,1.81-1.84
		c0-1.15-0.49-1.73-1.64-1.73c-0.37,0-0.64,0.05-0.85,0.13V4.34z M11.86,9.14c0.19,0.05,0.46,0.11,0.68,0.11
		c1.16,0,2.05-0.55,2.05-2.17c0-1.69-1.01-2.31-2.28-2.31h-0.45V9.14z"/>
	<rect x="6.25" y="4.12" class="st0" width="3.33" height="1.3"/>
</g>
</svg>
