<?xml version="1.0" encoding="utf-8"?>
<!-- Generator: Adobe Illustrator 23.0.1, SVG Export Plug-In . SVG Version: 6.00 Build 0)  -->
<svg version="1.1" id="Layer_1" xmlns="http://www.w3.org/2000/svg" xmlns:xlink="http://www.w3.org/1999/xlink" x="0px" y="0px"
	 viewBox="0 0 87.89 21.28" style="enable-background:new 0 0 87.89 21.28;" xml:space="preserve">
<style type="text/css">
	.st0{fill:#DD0E0E;}
</style>
<g>
	<path class="st0" d="M2.1,17.64V17c0.9-0.34,1.23-0.78,1.52-1.88L6.3,4.8L5.9,3.62l2.16-0.14l3.5,13.28L12.44,17v0.64H8.62V17
		l0.88-0.24L8.57,13.2H4.76l-0.48,1.9c-0.08,0.34-0.11,0.56-0.11,0.88c0,0.7,0.58,0.82,1.1,1.02v0.64H2.1z M8.38,12.36L6.7,5.84
		H6.67L5,12.36H8.38z"/>
	<path class="st0" d="M13.75,4.44l-0.88-0.16V3.64h4.31c3.67,0,5.04,3.82,5.04,7s-1.38,7-5.04,7h-4.31V17l0.88-0.16V4.44z
		 M15.71,16.84c0.22,0.1,0.64,0.16,1.18,0.16c1.84,0,3.22-1.24,3.22-6.36s-1.38-6.36-3.22-6.36c-0.54,0-0.96,0.06-1.18,0.16V16.84z"
		/>
	<path class="st0" d="M31.24,17.94c-0.14-0.1-0.35-0.18-0.61-0.22c-0.26-0.06-0.56-0.08-0.88-0.08h-6.16V17l0.88-0.16V4.44
		l-0.88-0.16V3.64h6.05c0.64,0,1.2-0.1,1.49-0.3l0.74,4.06l-0.59,0.16c-0.85-2.3-1.68-3.28-4.03-3.28c-0.27,0-0.54,0.04-0.82,0.16
		V9.8h0.64c1.1,0,1.5-0.64,1.76-2.24h0.51v5.12h-0.51c-0.26-1.6-0.66-2.24-1.76-2.24h-0.64v6.4C26.7,16.96,26.97,17,27.24,17
		c2.32,0,3.33-1.3,4.21-3.74l0.59,0.16L31.24,17.94z"/>
	<path class="st0" d="M34.28,4.44L33.4,4.28V3.64h3.71v0.64l-0.88,0.16v12.4c0.3,0.12,0.54,0.16,0.82,0.16
		c2.19,0,2.95-1.3,3.92-3.52l0.61,0.18l-0.88,4.28c-0.14-0.1-0.35-0.18-0.61-0.22c-0.26-0.06-0.56-0.08-0.88-0.08H33.4V17l0.88-0.16
		V4.44z"/>
	<path class="st0" d="M41.22,17.64V17c0.9-0.34,1.23-0.78,1.52-1.88L45.42,4.8l-0.4-1.18l2.16-0.14l3.5,13.28L51.56,17v0.64h-3.83
		V17l0.88-0.24l-0.93-3.56h-3.81l-0.48,1.9c-0.08,0.34-0.11,0.56-0.11,0.88c0,0.7,0.58,0.82,1.1,1.02v0.64H41.22z M47.5,12.36
		l-1.68-6.52h-0.03l-1.67,6.52H47.5z"/>
	<path class="st0" d="M56.95,4.44l-0.88-0.16V3.64h5.38c1.46,0,3.15,0.8,3.15,3.08c0,2.2-1.58,3.04-3.06,3.28v0.04
		c1.81,0.48,3.57,1.6,3.57,3.88c0,2.28-1.52,3.72-3.89,3.72h-5.15V17l0.88-0.16V4.44z M58.9,9.64h1.02c2.22,0,2.72-1.42,2.72-2.76
		c0-1.72-0.74-2.6-2.46-2.6c-0.56,0-0.96,0.08-1.28,0.2V9.64z M58.9,16.84c0.29,0.08,0.69,0.16,1.02,0.16
		c1.75,0,3.07-0.82,3.07-3.26c0-2.54-1.52-3.46-3.43-3.46H58.9V16.84z"/>
	<path class="st0" d="M74.36,17.94c-0.14-0.1-0.35-0.18-0.61-0.22c-0.26-0.06-0.56-0.08-0.88-0.08h-6.16V17l0.88-0.16V4.44
		l-0.88-0.16V3.64h6.05c0.64,0,1.2-0.1,1.49-0.3l0.74,4.06l-0.59,0.16c-0.85-2.3-1.68-3.28-4.03-3.28c-0.27,0-0.54,0.04-0.82,0.16
		V9.8h0.64c1.1,0,1.5-0.64,1.76-2.24h0.51v5.12h-0.51c-0.26-1.6-0.66-2.24-1.76-2.24h-0.64v6.4c0.27,0.12,0.54,0.16,0.82,0.16
		c2.32,0,3.33-1.3,4.21-3.74l0.59,0.16L74.36,17.94z"/>
	<path class="st0" d="M75.45,17.64V17c0.9-0.34,1.23-0.78,1.52-1.88L79.64,4.8l-0.4-1.18l2.16-0.14l3.5,13.28L85.79,17v0.64h-3.83
		V17l0.88-0.24l-0.93-3.56H78.1l-0.48,1.9c-0.08,0.34-0.11,0.56-0.11,0.88c0,0.7,0.58,0.82,1.1,1.02v0.64H75.45z M81.72,12.36
		l-1.68-6.52h-0.03l-1.67,6.52H81.72z"/>
</g>
</svg>
