<?xml version="1.0" encoding="utf-8"?>
<!-- Generator: Adobe Illustrator 23.0.1, SVG Export Plug-In . SVG Version: 6.00 Build 0)  -->
<svg version="1.1" id="Capa_1" xmlns="http://www.w3.org/2000/svg" xmlns:xlink="http://www.w3.org/1999/xlink" x="0px" y="0px"
	 viewBox="0 0 512 512" style="enable-background:new 0 0 512 512;" xml:space="preserve">
<style type="text/css">
	.st0{fill:#FEE77B;}
	.st1{fill:#F25555;}
	.st2{fill:#DD0E0E;}
	.st3{fill:#F4E2C9;}
	.st4{fill:#FDF7EF;}
	.st5{fill:#D3B188;}
	.st6{fill:#6EB4C7;}
</style>
<g>
	<g>
		<path class="st0" d="M256,35.6c19.9,0,36,16.1,36,36s-16.1,36-36,36s-36-16.1-36-36S236.1,35.6,256,35.6z"/>
	</g>
	<g>
		<ellipse class="st1" cx="480.1" cy="65.4" rx="22" ry="22"/>
	</g>
	<g>
		<ellipse class="st1" cx="32" cy="65.2" rx="22" ry="22"/>
	</g>
	<g>
		<g>
			<ellipse class="st2" cx="74" cy="206.3" rx="25.6" ry="25.6"/>
		</g>
		<g>
			
				<ellipse transform="matrix(0.3891 -0.9212 0.9212 0.3891 77.2886 529.632)" class="st2" cx="438" cy="206.5" rx="25.6" ry="25.6"/>
		</g>
	</g>
	<g>
		<g>
			<g>
				<g>
					<path class="st3" d="M295,199.8l-28.1-51.7h-21.8l-80.2,147.7c-7.2,13.3-7.4,29.3-0.4,42.7l31.3,60.3h120.4l31.3-60.3
						c7-13.4,6.8-29.4-0.4-42.7l-11.9-22"/>
				</g>
				<g>
					<g>
						<ellipse class="st4" cx="256.1" cy="310.9" rx="36.9" ry="36.9"/>
					</g>
					<g>
						<path d="M256,357.6c-25.8,0-46.9-21-46.9-46.9s21-46.9,46.9-46.9s46.9,21,46.9,46.9S281.8,357.6,256,357.6L256,357.6z
							 M256,283.9c-14.8,0-26.9,12.1-26.9,26.9c0,14.8,12.1,26.9,26.9,26.9c14.8,0,26.9-12.1,26.9-26.9S270.8,283.9,256,283.9
							L256,283.9z"/>
					</g>
				</g>
				<path class="st5" d="M335.6,476.4l-19.4-77.6H195.8l-19.4,77.6H335.6z"/>
				<g>
					<g>
						<path class="st6" d="M0,0"/>
					</g>
					<g>
						<path d="M316.6,249.6c-6.9,0.2-12.1-7.5-9.2-13.8c4.3-10,19.1-7.1,19.2,3.8C326.7,245,322,249.7,316.6,249.6z"/>
					</g>
				</g>
			</g>
		</g>
		<g>
			<path d="M480,33.2c-14.2,0-26.2,9.2-30.4,22H299c-6.6-17.3-23.4-29.6-43-29.6c-19.6,0-36.4,12.3-43,29.6H62.5
				c-4.2-12.8-16.3-22-30.4-22c-17.7,0-32,14.4-32,32c0,17.7,14.4,32,32,32c14.2,0,26.2-9.2,30.4-22h57c-6.5,4.3-12.7,9.2-18.4,14.8
				c-22.5,21.9-35.6,51-36.9,82.1c-14.9,4.3-25.8,18-25.8,34.2c0,19.7,16,35.6,35.6,35.6s35.6-16,35.6-35.6
				c0-16.1-10.8-29.8-25.5-34.2c2.8-53.7,48.1-97,102.1-97h23.8c1.9,23.7,21.7,42.4,45.9,42.4s44-18.7,45.9-42.4h23.8
				c54,0,99.3,43.3,102.1,97c-14.8,4.4-25.6,18-25.6,34.2c0,19.7,16,35.6,35.6,35.6c19.7,0,35.6-16,35.6-35.6
				c0-16.2-10.9-29.9-25.7-34.2c-1.4-31.1-14.5-60.3-37-82.2c-5.7-5.5-11.8-10.4-18.3-14.7h57c4.2,12.8,16.3,22,30.4,22
				c17.7,0,32-14.4,32-32C512,47.5,497.6,33.2,480,33.2L480,33.2z M32,77.2c-6.6,0-12-5.4-12-12s5.4-12,12-12s12,5.4,12,12
				S38.7,77.2,32,77.2z M89.7,206.3c0,8.6-7,15.6-15.6,15.6c-8.6,0-15.6-7-15.6-15.6s7-15.6,15.6-15.6
				C82.7,190.7,89.7,197.7,89.7,206.3z M256,97.6c-14.3,0-26-11.7-26-26c0-14.3,11.7-26,26-26c14.3,0,26,11.7,26,26
				S270.3,97.6,256,97.6z M453.6,206.3c0,8.6-7,15.6-15.6,15.6s-15.6-7-15.6-15.6s7-15.6,15.6-15.6S453.6,197.7,453.6,206.3z
				 M480,77.2c-6.6,0-12-5.4-12-12s5.4-12,12-12s12,5.4,12,12S486.6,77.2,480,77.2z"/>
			<path d="M344,269.1c-2.6-4.9-8.7-6.6-13.6-4c-4.9,2.6-6.6,8.7-4,13.6l11.9,22c5.6,10.4,5.7,22.8,0.3,33.3l-28.5,54.9H201.9
				l-28.5-54.9c-5.4-10.5-5.3-22.9,0.3-33.3L246,167.4v61.6c0,5.5,4.5,10,10,10c5.5,0,10-4.5,10-10v-61.6l20.2,37.2
				c2.6,4.9,8.7,6.6,13.6,4c4.9-2.6,6.6-8.7,4-13.6l-28.1-51.7c-1.8-3.2-5.1-5.2-8.8-5.2h-21.8c-3.7,0-7,2-8.8,5.2l-80.2,147.7
				c-8.8,16.2-9,35.7-0.5,52l23.7,45.7h-2.8c-5.5,0-10,4.5-10,10s4.5,10,10,10h6.4L166.7,474c-0.7,3-0.1,6.2,1.8,8.6
				s4.8,3.8,7.9,3.8h159.3c3.1,0,6-1.4,7.9-3.8c1.9-2.4,2.6-5.6,1.8-8.6L329,408.8h6.4c5.5,0,10-4.5,10-10s-4.5-10-10-10h-2.8
				l23.7-45.7c8.5-16.4,8.3-35.8-0.5-52L344,269.1z M322.8,466.4H189.2l14.4-57.6h104.8L322.8,466.4z"/>
		</g>
	</g>
</g>
</svg>
